<mxfile host="app.diagrams.net" agent="Mozilla/5.0 (X11; Linux x86_64) AppleWebKit/537.36 (KHTML, like Gecko) Chrome/127.0.0.0 Safari/537.36" version="24.7.7">
  <diagram name="Trang-1" id="-9Ip_Ibmc9sTf0YnryyA">
    <mxGraphModel dx="2200" dy="2377" grid="1" gridSize="10" guides="1" tooltips="1" connect="1" arrows="1" fold="1" page="1" pageScale="1" pageWidth="827" pageHeight="1169" math="0" shadow="0">
      <root>
        <mxCell id="0" />
        <mxCell id="1" parent="0" />
        <mxCell id="k1-iHyB-ivSmNIrE1DO6-104" style="edgeStyle=orthogonalEdgeStyle;rounded=0;orthogonalLoop=1;jettySize=auto;html=1;entryX=0;entryY=0.5;entryDx=0;entryDy=0;exitX=0.999;exitY=0.783;exitDx=0;exitDy=0;exitPerimeter=0;fontSize=18;strokeWidth=2;startArrow=classic;startFill=1;" edge="1" parent="1" source="k1-iHyB-ivSmNIrE1DO6-2" target="k1-iHyB-ivSmNIrE1DO6-48">
          <mxGeometry relative="1" as="geometry">
            <mxPoint x="1370" y="260" as="sourcePoint" />
          </mxGeometry>
        </mxCell>
        <mxCell id="k1-iHyB-ivSmNIrE1DO6-115" style="edgeStyle=orthogonalEdgeStyle;rounded=0;orthogonalLoop=1;jettySize=auto;html=1;entryX=0.5;entryY=1;entryDx=0;entryDy=0;startArrow=none;startFill=0;fontSize=18;strokeWidth=2;" edge="1" parent="1" source="k1-iHyB-ivSmNIrE1DO6-2" target="k1-iHyB-ivSmNIrE1DO6-3">
          <mxGeometry relative="1" as="geometry">
            <mxPoint x="1603.5" y="99.71" as="targetPoint" />
            <Array as="points">
              <mxPoint x="1268.5" y="159.71" />
              <mxPoint x="1268.5" y="159.71" />
            </Array>
          </mxGeometry>
        </mxCell>
        <mxCell id="k1-iHyB-ivSmNIrE1DO6-152" style="edgeStyle=orthogonalEdgeStyle;rounded=0;orthogonalLoop=1;jettySize=auto;html=1;entryX=0.5;entryY=1;entryDx=0;entryDy=0;exitX=1;exitY=0.25;exitDx=0;exitDy=0;fontSize=18;strokeWidth=2;startArrow=classic;startFill=1;" edge="1" parent="1" source="k1-iHyB-ivSmNIrE1DO6-2" target="k1-iHyB-ivSmNIrE1DO6-20">
          <mxGeometry relative="1" as="geometry">
            <mxPoint x="1510" y="29.86999999999989" as="targetPoint" />
          </mxGeometry>
        </mxCell>
        <mxCell id="k1-iHyB-ivSmNIrE1DO6-2" value="&lt;font size=&quot;1&quot; style=&quot;&quot;&gt;&lt;b style=&quot;font-size: 24px;&quot;&gt;Agent&lt;/b&gt;&lt;/font&gt;" style="text;html=1;align=center;verticalAlign=middle;whiteSpace=wrap;rounded=1;fillColor=none;strokeColor=default;fontSize=18;strokeWidth=2;" vertex="1" parent="1">
          <mxGeometry x="1198.5" y="40" width="140" height="275.15" as="geometry" />
        </mxCell>
        <mxCell id="k1-iHyB-ivSmNIrE1DO6-7" value="&lt;b style=&quot;&quot;&gt;&lt;font style=&quot;font-size: 24px;&quot;&gt;LLM Adapter&lt;/font&gt;&lt;/b&gt;" style="rounded=1;whiteSpace=wrap;html=1;fontSize=18;strokeWidth=2;" vertex="1" parent="1">
          <mxGeometry x="650" y="-111.56" width="160" height="79.71" as="geometry" />
        </mxCell>
        <mxCell id="k1-iHyB-ivSmNIrE1DO6-116" style="edgeStyle=orthogonalEdgeStyle;rounded=0;orthogonalLoop=1;jettySize=auto;html=1;exitX=0.5;exitY=0;exitDx=0;exitDy=0;fontSize=18;entryX=0.5;entryY=0;entryDx=0;entryDy=0;strokeWidth=2;" edge="1" parent="1" source="k1-iHyB-ivSmNIrE1DO6-20" target="k1-iHyB-ivSmNIrE1DO6-7">
          <mxGeometry relative="1" as="geometry">
            <mxPoint x="750" y="-120" as="targetPoint" />
            <Array as="points">
              <mxPoint x="1538" y="-160" />
              <mxPoint x="731" y="-160" />
              <mxPoint x="731" y="-112" />
            </Array>
          </mxGeometry>
        </mxCell>
        <mxCell id="k1-iHyB-ivSmNIrE1DO6-20" value="&lt;font size=&quot;1&quot; style=&quot;&quot;&gt;&lt;b style=&quot;font-size: 24px;&quot;&gt;LLM&lt;/b&gt;&lt;/font&gt;" style="rounded=1;whiteSpace=wrap;html=1;fontSize=18;strokeWidth=2;" vertex="1" parent="1">
          <mxGeometry x="1477.5" y="-136.61" width="120" height="218.46" as="geometry" />
        </mxCell>
        <mxCell id="k1-iHyB-ivSmNIrE1DO6-121" value="" style="sketch=0;outlineConnect=0;fontColor=#232F3E;gradientColor=none;fillColor=#232F3D;strokeColor=none;dashed=0;verticalLabelPosition=bottom;verticalAlign=top;align=center;html=1;fontSize=18;fontStyle=0;aspect=fixed;pointerEvents=1;shape=mxgraph.aws4.user;strokeWidth=2;" vertex="1" parent="1">
          <mxGeometry x="460" y="-114.55999999999997" width="78" height="78" as="geometry" />
        </mxCell>
        <mxCell id="k1-iHyB-ivSmNIrE1DO6-138" value="" style="endArrow=classic;html=1;rounded=0;entryX=0;entryY=0.25;entryDx=0;entryDy=0;fontSize=18;strokeWidth=2;" edge="1" parent="1" target="k1-iHyB-ivSmNIrE1DO6-7">
          <mxGeometry width="50" height="50" relative="1" as="geometry">
            <mxPoint x="540" y="-91.27" as="sourcePoint" />
            <mxPoint x="571.79" y="-101.55999999999999" as="targetPoint" />
          </mxGeometry>
        </mxCell>
        <mxCell id="k1-iHyB-ivSmNIrE1DO6-144" value="" style="endArrow=none;html=1;rounded=0;entryX=0;entryY=0.75;entryDx=0;entryDy=0;startArrow=classic;startFill=1;endFill=0;fontSize=18;strokeWidth=2;" edge="1" parent="1" target="k1-iHyB-ivSmNIrE1DO6-7">
          <mxGeometry width="50" height="50" relative="1" as="geometry">
            <mxPoint x="540" y="-51.27" as="sourcePoint" />
            <mxPoint x="681.79" y="-71.55999999999999" as="targetPoint" />
          </mxGeometry>
        </mxCell>
        <mxCell id="k1-iHyB-ivSmNIrE1DO6-145" value="&lt;font style=&quot;font-size: 18px;&quot;&gt;Query&lt;/font&gt;" style="text;html=1;align=center;verticalAlign=middle;whiteSpace=wrap;rounded=0;fontSize=18;strokeWidth=2;" vertex="1" parent="1">
          <mxGeometry x="570" y="-119.72999999999998" width="60" height="30" as="geometry" />
        </mxCell>
        <mxCell id="k1-iHyB-ivSmNIrE1DO6-146" value="&lt;font style=&quot;font-size: 18px;&quot;&gt;Response&lt;/font&gt;" style="text;html=1;align=center;verticalAlign=middle;whiteSpace=wrap;rounded=0;fontSize=18;strokeWidth=2;" vertex="1" parent="1">
          <mxGeometry x="570" y="-51.559999999999995" width="60" height="30" as="geometry" />
        </mxCell>
        <mxCell id="k1-iHyB-ivSmNIrE1DO6-8" value="" style="rounded=1;whiteSpace=wrap;html=1;dashed=1;dashPattern=8 8;perimeterSpacing=0;gradientColor=none;fontSize=18;strokeWidth=2;" vertex="1" parent="1">
          <mxGeometry x="653.5" y="-10" width="470" height="360" as="geometry" />
        </mxCell>
        <mxCell id="k1-iHyB-ivSmNIrE1DO6-112" style="edgeStyle=orthogonalEdgeStyle;rounded=0;orthogonalLoop=1;jettySize=auto;html=1;entryX=0.5;entryY=1;entryDx=0;entryDy=0;fontSize=18;strokeWidth=2;" edge="1" parent="1" source="k1-iHyB-ivSmNIrE1DO6-6" target="k1-iHyB-ivSmNIrE1DO6-98">
          <mxGeometry relative="1" as="geometry" />
        </mxCell>
        <mxCell id="k1-iHyB-ivSmNIrE1DO6-6" value="Similarity Evaluator" style="rounded=1;whiteSpace=wrap;html=1;fontSize=18;strokeWidth=2;" vertex="1" parent="1">
          <mxGeometry x="862.82" y="202.67000000000002" width="117.89" height="124.57" as="geometry" />
        </mxCell>
        <mxCell id="k1-iHyB-ivSmNIrE1DO6-95" style="edgeStyle=orthogonalEdgeStyle;rounded=0;orthogonalLoop=1;jettySize=auto;html=1;entryX=0.5;entryY=0;entryDx=0;entryDy=0;fontSize=18;strokeWidth=2;" edge="1" parent="1" source="k1-iHyB-ivSmNIrE1DO6-11" target="k1-iHyB-ivSmNIrE1DO6-6">
          <mxGeometry relative="1" as="geometry" />
        </mxCell>
        <mxCell id="k1-iHyB-ivSmNIrE1DO6-38" value="" style="rounded=1;whiteSpace=wrap;html=1;fontSize=18;strokeWidth=2;" vertex="1" parent="1">
          <mxGeometry x="665.39" y="80" width="170" height="250" as="geometry" />
        </mxCell>
        <mxCell id="k1-iHyB-ivSmNIrE1DO6-11" value="Embedding Generator" style="rounded=1;whiteSpace=wrap;html=1;fontSize=18;strokeWidth=2;" vertex="1" parent="1">
          <mxGeometry x="853.99" y="33.94999999999999" width="136.92" height="51.57" as="geometry" />
        </mxCell>
        <mxCell id="k1-iHyB-ivSmNIrE1DO6-39" value="Cache Storage" style="rounded=1;whiteSpace=wrap;html=1;fontSize=18;strokeWidth=2;" vertex="1" parent="1">
          <mxGeometry x="703.5" y="269.63" width="93.76" height="45.52" as="geometry" />
        </mxCell>
        <mxCell id="k1-iHyB-ivSmNIrE1DO6-40" value="Vector Store" style="rounded=1;whiteSpace=wrap;html=1;fontSize=18;strokeWidth=2;" vertex="1" parent="1">
          <mxGeometry x="700.76" y="202.67" width="96.5" height="45.52" as="geometry" />
        </mxCell>
        <mxCell id="k1-iHyB-ivSmNIrE1DO6-41" value="Eviction Policy&lt;div style=&quot;font-size: 18px;&quot;&gt;LRU&lt;br style=&quot;font-size: 18px;&quot;&gt;FIFO&lt;/div&gt;" style="text;html=1;align=center;verticalAlign=middle;whiteSpace=wrap;rounded=1;strokeColor=default;fontSize=18;strokeWidth=2;" vertex="1" parent="1">
          <mxGeometry x="680.39" y="121.33000000000001" width="140" height="65.23" as="geometry" />
        </mxCell>
        <mxCell id="k1-iHyB-ivSmNIrE1DO6-97" style="edgeStyle=orthogonalEdgeStyle;rounded=0;orthogonalLoop=1;jettySize=auto;html=1;entryX=1;entryY=0.5;entryDx=0;entryDy=0;startArrow=none;startFill=0;endArrow=classic;endFill=1;exitX=0.001;exitY=0.723;exitDx=0;exitDy=0;exitPerimeter=0;fontSize=18;strokeWidth=2;" edge="1" parent="1" source="k1-iHyB-ivSmNIrE1DO6-6" target="k1-iHyB-ivSmNIrE1DO6-39">
          <mxGeometry relative="1" as="geometry">
            <mxPoint x="860" y="290" as="sourcePoint" />
          </mxGeometry>
        </mxCell>
        <mxCell id="k1-iHyB-ivSmNIrE1DO6-98" value="Cache hit" style="rounded=1;whiteSpace=wrap;html=1;fontSize=18;strokeWidth=2;" vertex="1" parent="1">
          <mxGeometry x="1013.51" y="158.49" width="98.25" height="43.75" as="geometry" />
        </mxCell>
        <mxCell id="k1-iHyB-ivSmNIrE1DO6-122" value="&lt;b style=&quot;font-size: 24px;&quot;&gt;&lt;font style=&quot;font-size: 24px;&quot;&gt;Cache&lt;/font&gt;&lt;/b&gt;" style="text;html=1;align=center;verticalAlign=middle;whiteSpace=wrap;rounded=0;fontSize=24;strokeWidth=2;" vertex="1" parent="1">
          <mxGeometry x="863.5" y="-10" width="60" height="30" as="geometry" />
        </mxCell>
        <mxCell id="k1-iHyB-ivSmNIrE1DO6-151" style="edgeStyle=orthogonalEdgeStyle;rounded=0;orthogonalLoop=1;jettySize=auto;html=1;entryX=0.992;entryY=0.274;entryDx=0;entryDy=0;exitX=0;exitY=0.5;exitDx=0;exitDy=0;entryPerimeter=0;fontSize=18;strokeWidth=2;" edge="1" parent="1" source="k1-iHyB-ivSmNIrE1DO6-3" target="k1-iHyB-ivSmNIrE1DO6-7">
          <mxGeometry relative="1" as="geometry" />
        </mxCell>
        <mxCell id="k1-iHyB-ivSmNIrE1DO6-3" value="" style="rounded=1;whiteSpace=wrap;html=1;dashed=1;dashPattern=8 8;fontSize=18;strokeWidth=2;" vertex="1" parent="1">
          <mxGeometry x="1123.5" y="-136.61" width="290" height="92.36" as="geometry" />
        </mxCell>
        <mxCell id="k1-iHyB-ivSmNIrE1DO6-43" value="Short-term&lt;div style=&quot;font-size: 18px;&quot;&gt;memory&lt;/div&gt;" style="rounded=1;whiteSpace=wrap;html=1;fontSize=18;strokeWidth=2;" vertex="1" parent="1">
          <mxGeometry x="1141.16" y="-98.59" width="112.73" height="46.05" as="geometry" />
        </mxCell>
        <mxCell id="k1-iHyB-ivSmNIrE1DO6-44" value="Long-term&amp;nbsp;&lt;div style=&quot;font-size: 18px;&quot;&gt;memory&lt;/div&gt;" style="rounded=1;whiteSpace=wrap;html=1;fontSize=18;strokeWidth=2;" vertex="1" parent="1">
          <mxGeometry x="1284.27" y="-98.60000000000001" width="112.73" height="46.06" as="geometry" />
        </mxCell>
        <mxCell id="k1-iHyB-ivSmNIrE1DO6-48" value="" style="rounded=1;whiteSpace=wrap;html=1;dashed=1;dashPattern=8 8;container=0;fontSize=18;strokeWidth=2;" vertex="1" parent="1">
          <mxGeometry x="1480" y="150" width="120" height="210" as="geometry" />
        </mxCell>
        <mxCell id="k1-iHyB-ivSmNIrE1DO6-49" value="&lt;font size=&quot;1&quot; style=&quot;&quot;&gt;&lt;b style=&quot;font-size: 24px;&quot;&gt;Tasks&lt;/b&gt;&lt;/font&gt;" style="text;html=1;align=center;verticalAlign=middle;whiteSpace=wrap;rounded=0;container=0;fontSize=18;strokeWidth=2;" vertex="1" parent="1">
          <mxGeometry x="1490" y="158.491935483871" width="100" height="28.064516129032256" as="geometry" />
        </mxCell>
        <mxCell id="k1-iHyB-ivSmNIrE1DO6-50" value="Task 1" style="rounded=1;whiteSpace=wrap;html=1;container=0;fontSize=18;strokeWidth=2;" vertex="1" parent="1">
          <mxGeometry x="1495" y="205.43" width="85" height="56.13" as="geometry" />
        </mxCell>
        <mxCell id="k1-iHyB-ivSmNIrE1DO6-51" value="Task n" style="rounded=1;whiteSpace=wrap;html=1;container=0;fontSize=18;strokeWidth=2;" vertex="1" parent="1">
          <mxGeometry x="1495" y="289.39" width="85" height="56.13" as="geometry" />
        </mxCell>
        <mxCell id="k1-iHyB-ivSmNIrE1DO6-54" value="" style="endArrow=none;dashed=1;html=1;dashPattern=1 3;strokeWidth=2;rounded=0;exitX=0.5;exitY=1;exitDx=0;exitDy=0;entryX=0.5;entryY=0;entryDx=0;entryDy=0;fontSize=18;" edge="1" parent="1" source="k1-iHyB-ivSmNIrE1DO6-50" target="k1-iHyB-ivSmNIrE1DO6-51">
          <mxGeometry width="50" height="50" relative="1" as="geometry">
            <mxPoint x="1535" y="481.3964516129032" as="sourcePoint" />
            <mxPoint x="1585" y="434.62225806451613" as="targetPoint" />
          </mxGeometry>
        </mxCell>
        <mxCell id="k1-iHyB-ivSmNIrE1DO6-204" style="edgeStyle=orthogonalEdgeStyle;rounded=0;orthogonalLoop=1;jettySize=auto;html=1;entryX=0.5;entryY=1;entryDx=0;entryDy=0;fontSize=18;strokeWidth=2;" edge="1" parent="1" source="k1-iHyB-ivSmNIrE1DO6-78" target="k1-iHyB-ivSmNIrE1DO6-2">
          <mxGeometry relative="1" as="geometry">
            <Array as="points">
              <mxPoint x="1269" y="390" />
              <mxPoint x="1269" y="390" />
            </Array>
          </mxGeometry>
        </mxCell>
        <mxCell id="k1-iHyB-ivSmNIrE1DO6-78" value="" style="rounded=1;whiteSpace=wrap;html=1;dashed=1;container=0;dashPattern=8 8;fontSize=16;strokeWidth=2;" vertex="1" parent="1">
          <mxGeometry x="280" y="420" width="1591.75" height="220" as="geometry" />
        </mxCell>
        <mxCell id="k1-iHyB-ivSmNIrE1DO6-79" value="&lt;font size=&quot;1&quot; style=&quot;&quot;&gt;&lt;b style=&quot;font-size: 24px;&quot;&gt;Tools&lt;/b&gt;&lt;/font&gt;" style="text;html=1;align=center;verticalAlign=middle;whiteSpace=wrap;rounded=0;container=0;fontSize=18;strokeWidth=2;" vertex="1" parent="1">
          <mxGeometry x="1040.26" y="420" width="60" height="30" as="geometry" />
        </mxCell>
        <mxCell id="k1-iHyB-ivSmNIrE1DO6-65" value="" style="rounded=1;whiteSpace=wrap;html=1;container=0;fontSize=18;strokeWidth=2;" vertex="1" parent="1">
          <mxGeometry x="291.75" y="513.75" width="240.12" height="110" as="geometry" />
        </mxCell>
        <mxCell id="k1-iHyB-ivSmNIrE1DO6-126" style="edgeStyle=orthogonalEdgeStyle;rounded=0;orthogonalLoop=1;jettySize=auto;html=1;entryX=0;entryY=0.5;entryDx=0;entryDy=0;fontSize=18;strokeWidth=2;" edge="1" parent="1" source="k1-iHyB-ivSmNIrE1DO6-66" target="k1-iHyB-ivSmNIrE1DO6-68">
          <mxGeometry relative="1" as="geometry" />
        </mxCell>
        <mxCell id="k1-iHyB-ivSmNIrE1DO6-66" value="Google Email&lt;div style=&quot;font-size: 18px;&quot;&gt;API&lt;/div&gt;" style="rounded=1;whiteSpace=wrap;html=1;container=0;fontSize=18;strokeWidth=2;" vertex="1" parent="1">
          <mxGeometry x="301.75" y="568.25" width="120" height="45.5" as="geometry" />
        </mxCell>
        <mxCell id="k1-iHyB-ivSmNIrE1DO6-67" value="&lt;font size=&quot;1&quot; style=&quot;&quot;&gt;&lt;b style=&quot;font-size: 20px;&quot;&gt;Email&lt;/b&gt;&lt;/font&gt;" style="text;html=1;align=center;verticalAlign=middle;whiteSpace=wrap;rounded=0;container=0;fontSize=18;strokeWidth=2;" vertex="1" parent="1">
          <mxGeometry x="381.81" y="516.25" width="60" height="30" as="geometry" />
        </mxCell>
        <mxCell id="k1-iHyB-ivSmNIrE1DO6-182" style="edgeStyle=orthogonalEdgeStyle;rounded=0;orthogonalLoop=1;jettySize=auto;html=1;exitX=1;exitY=0.5;exitDx=0;exitDy=0;fontSize=18;strokeWidth=2;" edge="1" parent="1" source="k1-iHyB-ivSmNIrE1DO6-68">
          <mxGeometry relative="1" as="geometry">
            <mxPoint x="551.87" y="591" as="targetPoint" />
            <mxPoint x="481.8700000000001" y="591.060606060606" as="sourcePoint" />
          </mxGeometry>
        </mxCell>
        <mxCell id="k1-iHyB-ivSmNIrE1DO6-68" value="Email Storage" style="rounded=1;whiteSpace=wrap;html=1;container=0;fontSize=18;strokeWidth=2;" vertex="1" parent="1">
          <mxGeometry x="451.87" y="568.25" width="68.12" height="45.5" as="geometry" />
        </mxCell>
        <mxCell id="k1-iHyB-ivSmNIrE1DO6-4" value="" style="rounded=1;whiteSpace=wrap;html=1;container=0;fontSize=18;strokeWidth=2;" vertex="1" parent="1">
          <mxGeometry x="873.5" y="463.75" width="400" height="160" as="geometry" />
        </mxCell>
        <mxCell id="k1-iHyB-ivSmNIrE1DO6-128" style="edgeStyle=orthogonalEdgeStyle;rounded=0;orthogonalLoop=1;jettySize=auto;html=1;entryX=0.5;entryY=0;entryDx=0;entryDy=0;dashed=1;fontSize=18;strokeWidth=2;" edge="1" parent="1">
          <mxGeometry relative="1" as="geometry">
            <mxPoint x="926.61" y="527.5" as="sourcePoint" />
            <mxPoint x="926.6200000000002" y="578.1300000000001" as="targetPoint" />
            <Array as="points">
              <mxPoint x="926.48" y="556.25" />
              <mxPoint x="926.48" y="556.25" />
            </Array>
          </mxGeometry>
        </mxCell>
        <mxCell id="k1-iHyB-ivSmNIrE1DO6-13" value="Obsidian API" style="rounded=1;whiteSpace=wrap;html=1;container=0;fontSize=18;strokeWidth=2;" vertex="1" parent="1">
          <mxGeometry x="885.13" y="478.75" width="83.25" height="48.75" as="geometry" />
        </mxCell>
        <mxCell id="k1-iHyB-ivSmNIrE1DO6-29" value="&lt;font size=&quot;1&quot; style=&quot;&quot;&gt;&lt;b style=&quot;font-size: 20px;&quot;&gt;Note&lt;/b&gt;&lt;/font&gt;" style="text;html=1;align=center;verticalAlign=middle;whiteSpace=wrap;rounded=0;container=0;fontSize=18;strokeWidth=2;" vertex="1" parent="1">
          <mxGeometry x="1040.88" y="463.75" width="60" height="30" as="geometry" />
        </mxCell>
        <mxCell id="k1-iHyB-ivSmNIrE1DO6-129" style="edgeStyle=orthogonalEdgeStyle;rounded=0;orthogonalLoop=1;jettySize=auto;html=1;entryX=0;entryY=0.5;entryDx=0;entryDy=0;dashed=1;fontSize=18;strokeWidth=2;" edge="1" parent="1" target="k1-iHyB-ivSmNIrE1DO6-81">
          <mxGeometry relative="1" as="geometry">
            <mxPoint x="960.0100000000003" y="597.5" as="sourcePoint" />
          </mxGeometry>
        </mxCell>
        <mxCell id="k1-iHyB-ivSmNIrE1DO6-61" value="Chunk" style="rounded=1;whiteSpace=wrap;html=1;container=0;fontSize=18;strokeWidth=2;" vertex="1" parent="1">
          <mxGeometry x="890.87" y="578.13" width="71.76" height="31.25" as="geometry" />
        </mxCell>
        <mxCell id="k1-iHyB-ivSmNIrE1DO6-200" style="edgeStyle=orthogonalEdgeStyle;rounded=0;orthogonalLoop=1;jettySize=auto;html=1;entryX=0.5;entryY=0;entryDx=0;entryDy=0;startArrow=classic;startFill=1;endArrow=none;endFill=0;fontSize=18;strokeWidth=2;" edge="1" parent="1" source="k1-iHyB-ivSmNIrE1DO6-62" target="k1-iHyB-ivSmNIrE1DO6-69">
          <mxGeometry relative="1" as="geometry" />
        </mxCell>
        <mxCell id="k1-iHyB-ivSmNIrE1DO6-62" value="Vector db" style="rounded=1;whiteSpace=wrap;html=1;container=0;fontSize=18;strokeWidth=2;" vertex="1" parent="1">
          <mxGeometry x="1152.88" y="507.5" width="94" height="42.5" as="geometry" />
        </mxCell>
        <mxCell id="k1-iHyB-ivSmNIrE1DO6-199" style="edgeStyle=orthogonalEdgeStyle;rounded=0;orthogonalLoop=1;jettySize=auto;html=1;fontSize=18;strokeWidth=2;" edge="1" parent="1" source="k1-iHyB-ivSmNIrE1DO6-69">
          <mxGeometry relative="1" as="geometry">
            <mxPoint x="1293.5" y="593.75" as="targetPoint" />
          </mxGeometry>
        </mxCell>
        <mxCell id="k1-iHyB-ivSmNIrE1DO6-69" value="Similarity Evaluator" style="rounded=1;whiteSpace=wrap;html=1;container=0;fontSize=18;strokeWidth=2;" vertex="1" parent="1">
          <mxGeometry x="1140.88" y="573.75" width="118" height="40" as="geometry" />
        </mxCell>
        <mxCell id="k1-iHyB-ivSmNIrE1DO6-130" style="edgeStyle=orthogonalEdgeStyle;rounded=0;orthogonalLoop=1;jettySize=auto;html=1;entryX=0;entryY=0.5;entryDx=0;entryDy=0;exitX=1;exitY=0.5;exitDx=0;exitDy=0;dashed=1;fontSize=18;strokeWidth=2;" edge="1" parent="1" source="k1-iHyB-ivSmNIrE1DO6-81" target="k1-iHyB-ivSmNIrE1DO6-62">
          <mxGeometry relative="1" as="geometry" />
        </mxCell>
        <mxCell id="k1-iHyB-ivSmNIrE1DO6-143" style="edgeStyle=orthogonalEdgeStyle;rounded=0;orthogonalLoop=1;jettySize=auto;html=1;entryX=0;entryY=0.5;entryDx=0;entryDy=0;exitX=0.5;exitY=1;exitDx=0;exitDy=0;fontSize=18;strokeWidth=2;" edge="1" parent="1" source="k1-iHyB-ivSmNIrE1DO6-81" target="k1-iHyB-ivSmNIrE1DO6-69">
          <mxGeometry relative="1" as="geometry" />
        </mxCell>
        <mxCell id="k1-iHyB-ivSmNIrE1DO6-81" value="Embedding Generator" style="rounded=1;whiteSpace=wrap;html=1;container=0;fontSize=18;strokeWidth=2;" vertex="1" parent="1">
          <mxGeometry x="1000.88" y="531.25" width="100" height="42.5" as="geometry" />
        </mxCell>
        <mxCell id="k1-iHyB-ivSmNIrE1DO6-147" value="&lt;b style=&quot;&quot;&gt;&lt;font style=&quot;font-size: 20px;&quot;&gt;Cache Manager&lt;/font&gt;&lt;/b&gt;" style="text;html=1;align=center;verticalAlign=middle;whiteSpace=wrap;rounded=0;fontSize=18;strokeWidth=2;" vertex="1" parent="1">
          <mxGeometry x="671.94" y="81.85" width="154.14" height="30" as="geometry" />
        </mxCell>
        <mxCell id="k1-iHyB-ivSmNIrE1DO6-110" style="edgeStyle=orthogonalEdgeStyle;rounded=0;orthogonalLoop=1;jettySize=auto;html=1;entryX=1;entryY=0.75;entryDx=0;entryDy=0;exitX=0.5;exitY=0;exitDx=0;exitDy=0;fontSize=18;strokeWidth=2;" edge="1" parent="1" source="k1-iHyB-ivSmNIrE1DO6-98" target="k1-iHyB-ivSmNIrE1DO6-7">
          <mxGeometry relative="1" as="geometry">
            <Array as="points">
              <mxPoint x="1063" y="-52" />
              <mxPoint x="1059" y="-52" />
            </Array>
          </mxGeometry>
        </mxCell>
        <mxCell id="k1-iHyB-ivSmNIrE1DO6-148" style="edgeStyle=orthogonalEdgeStyle;rounded=0;orthogonalLoop=1;jettySize=auto;html=1;entryX=0;entryY=0.5;entryDx=0;entryDy=0;exitX=0.5;exitY=1;exitDx=0;exitDy=0;fontSize=18;strokeWidth=2;" edge="1" parent="1" source="k1-iHyB-ivSmNIrE1DO6-7" target="k1-iHyB-ivSmNIrE1DO6-11">
          <mxGeometry relative="1" as="geometry">
            <Array as="points">
              <mxPoint x="730" y="60" />
            </Array>
          </mxGeometry>
        </mxCell>
        <mxCell id="k1-iHyB-ivSmNIrE1DO6-149" value="Yes" style="text;html=1;align=center;verticalAlign=middle;whiteSpace=wrap;rounded=0;fontSize=18;strokeWidth=2;" vertex="1" parent="1">
          <mxGeometry x="1051.75" y="105.14999999999998" width="60" height="30" as="geometry" />
        </mxCell>
        <mxCell id="k1-iHyB-ivSmNIrE1DO6-150" value="No" style="text;html=1;align=center;verticalAlign=middle;whiteSpace=wrap;rounded=0;fontSize=18;strokeWidth=2;" vertex="1" parent="1">
          <mxGeometry x="1110.26" y="150" width="60" height="30" as="geometry" />
        </mxCell>
        <mxCell id="k1-iHyB-ivSmNIrE1DO6-153" value="" style="endArrow=classic;html=1;rounded=0;entryX=0.5;entryY=0;entryDx=0;entryDy=0;fontSize=18;exitX=0.292;exitY=0.239;exitDx=0;exitDy=0;exitPerimeter=0;strokeWidth=2;" edge="1" parent="1" source="k1-iHyB-ivSmNIrE1DO6-65" target="k1-iHyB-ivSmNIrE1DO6-66">
          <mxGeometry width="50" height="50" relative="1" as="geometry">
            <mxPoint x="371.75" y="543.75" as="sourcePoint" />
            <mxPoint x="371.75" y="558.25" as="targetPoint" />
          </mxGeometry>
        </mxCell>
        <mxCell id="k1-iHyB-ivSmNIrE1DO6-176" value="" style="rounded=1;whiteSpace=wrap;html=1;container=0;fontSize=18;strokeWidth=2;" vertex="1" parent="1">
          <mxGeometry x="561.75" y="513.75" width="273.25" height="110" as="geometry" />
        </mxCell>
        <mxCell id="k1-iHyB-ivSmNIrE1DO6-177" style="edgeStyle=orthogonalEdgeStyle;rounded=0;orthogonalLoop=1;jettySize=auto;html=1;entryX=0;entryY=0.5;entryDx=0;entryDy=0;fontSize=18;strokeWidth=2;" edge="1" parent="1" source="k1-iHyB-ivSmNIrE1DO6-178" target="k1-iHyB-ivSmNIrE1DO6-180">
          <mxGeometry relative="1" as="geometry" />
        </mxCell>
        <mxCell id="k1-iHyB-ivSmNIrE1DO6-178" value="OpenWeatherMap API" style="rounded=1;whiteSpace=wrap;html=1;container=0;fontSize=18;strokeWidth=2;" vertex="1" parent="1">
          <mxGeometry x="571.75" y="568.25" width="147.63" height="45.5" as="geometry" />
        </mxCell>
        <mxCell id="k1-iHyB-ivSmNIrE1DO6-179" value="&lt;span style=&quot;font-size: 20px;&quot;&gt;&lt;b style=&quot;font-size: 20px;&quot;&gt;Weather&lt;/b&gt;&lt;/span&gt;" style="text;html=1;align=center;verticalAlign=middle;whiteSpace=wrap;rounded=0;container=0;fontSize=20;strokeWidth=2;" vertex="1" parent="1">
          <mxGeometry x="668.37" y="516.25" width="60" height="30" as="geometry" />
        </mxCell>
        <mxCell id="k1-iHyB-ivSmNIrE1DO6-183" style="edgeStyle=orthogonalEdgeStyle;rounded=0;orthogonalLoop=1;jettySize=auto;html=1;fontSize=18;strokeWidth=2;" edge="1" parent="1">
          <mxGeometry relative="1" as="geometry">
            <mxPoint x="859.38" y="591" as="targetPoint" />
            <mxPoint x="815" y="591.060606060606" as="sourcePoint" />
          </mxGeometry>
        </mxCell>
        <mxCell id="k1-iHyB-ivSmNIrE1DO6-180" value="Weather&lt;div style=&quot;font-size: 18px;&quot;&gt;Storage&lt;br style=&quot;font-size: 18px;&quot;&gt;&lt;/div&gt;" style="rounded=1;whiteSpace=wrap;html=1;container=0;fontSize=18;strokeWidth=2;" vertex="1" parent="1">
          <mxGeometry x="747.88" y="568.25" width="73.62" height="45.5" as="geometry" />
        </mxCell>
        <mxCell id="k1-iHyB-ivSmNIrE1DO6-181" value="" style="endArrow=classic;html=1;rounded=0;entryX=0.5;entryY=0;entryDx=0;entryDy=0;fontSize=18;exitX=0.307;exitY=0.239;exitDx=0;exitDy=0;exitPerimeter=0;strokeWidth=2;" edge="1" parent="1" target="k1-iHyB-ivSmNIrE1DO6-178" source="k1-iHyB-ivSmNIrE1DO6-176">
          <mxGeometry width="50" height="50" relative="1" as="geometry">
            <mxPoint x="669.38" y="543.75" as="sourcePoint" />
            <mxPoint x="669.38" y="558.25" as="targetPoint" />
          </mxGeometry>
        </mxCell>
        <mxCell id="k1-iHyB-ivSmNIrE1DO6-184" value="" style="rounded=1;whiteSpace=wrap;html=1;container=0;fontSize=18;strokeWidth=2;" vertex="1" parent="1">
          <mxGeometry x="1301.75" y="513.75" width="270" height="110" as="geometry" />
        </mxCell>
        <mxCell id="k1-iHyB-ivSmNIrE1DO6-185" style="edgeStyle=orthogonalEdgeStyle;rounded=0;orthogonalLoop=1;jettySize=auto;html=1;entryX=0;entryY=0.5;entryDx=0;entryDy=0;fontSize=18;strokeWidth=2;" edge="1" parent="1" source="k1-iHyB-ivSmNIrE1DO6-186" target="k1-iHyB-ivSmNIrE1DO6-189">
          <mxGeometry relative="1" as="geometry" />
        </mxCell>
        <mxCell id="k1-iHyB-ivSmNIrE1DO6-186" value="Google Calendar API" style="rounded=1;whiteSpace=wrap;html=1;container=0;fontSize=18;strokeWidth=2;" vertex="1" parent="1">
          <mxGeometry x="1314.13" y="568.25" width="140" height="45.5" as="geometry" />
        </mxCell>
        <mxCell id="k1-iHyB-ivSmNIrE1DO6-187" value="&lt;b style=&quot;&quot;&gt;&lt;font style=&quot;font-size: 20px;&quot;&gt;Calendar&lt;/font&gt;&lt;/b&gt;" style="text;html=1;align=center;verticalAlign=middle;whiteSpace=wrap;rounded=0;container=0;fontSize=18;strokeWidth=2;" vertex="1" parent="1">
          <mxGeometry x="1401.7499999999998" y="513.75" width="60" height="30" as="geometry" />
        </mxCell>
        <mxCell id="k1-iHyB-ivSmNIrE1DO6-189" value="Calendar&lt;div style=&quot;font-size: 18px;&quot;&gt;Storage&lt;/div&gt;" style="rounded=1;whiteSpace=wrap;html=1;container=0;fontSize=18;strokeWidth=2;" vertex="1" parent="1">
          <mxGeometry x="1486.13" y="568.25" width="75.62" height="45.5" as="geometry" />
        </mxCell>
        <mxCell id="k1-iHyB-ivSmNIrE1DO6-190" value="" style="endArrow=classic;html=1;rounded=0;entryX=0.5;entryY=0;entryDx=0;entryDy=0;fontSize=18;exitX=0.305;exitY=0.239;exitDx=0;exitDy=0;exitPerimeter=0;strokeWidth=2;" edge="1" parent="1" target="k1-iHyB-ivSmNIrE1DO6-186" source="k1-iHyB-ivSmNIrE1DO6-184">
          <mxGeometry width="50" height="50" relative="1" as="geometry">
            <mxPoint x="1404.1299999999999" y="543.75" as="sourcePoint" />
            <mxPoint x="1404.1299999999999" y="558.25" as="targetPoint" />
          </mxGeometry>
        </mxCell>
        <mxCell id="k1-iHyB-ivSmNIrE1DO6-191" value="" style="rounded=1;whiteSpace=wrap;html=1;container=0;fontSize=18;strokeWidth=2;" vertex="1" parent="1">
          <mxGeometry x="1599.25" y="513.75" width="240" height="110" as="geometry" />
        </mxCell>
        <mxCell id="k1-iHyB-ivSmNIrE1DO6-192" style="edgeStyle=orthogonalEdgeStyle;rounded=0;orthogonalLoop=1;jettySize=auto;html=1;entryX=0;entryY=0.5;entryDx=0;entryDy=0;fontSize=18;strokeWidth=2;" edge="1" parent="1" target="k1-iHyB-ivSmNIrE1DO6-196">
          <mxGeometry relative="1" as="geometry">
            <mxPoint x="1729.25" y="591.0344827586209" as="sourcePoint" />
          </mxGeometry>
        </mxCell>
        <mxCell id="k1-iHyB-ivSmNIrE1DO6-193" value="Google Task&lt;br style=&quot;font-size: 18px;&quot;&gt;API" style="rounded=1;whiteSpace=wrap;html=1;container=0;fontSize=18;strokeWidth=2;" vertex="1" parent="1">
          <mxGeometry x="1609.25" y="568.25" width="120" height="45.5" as="geometry" />
        </mxCell>
        <mxCell id="k1-iHyB-ivSmNIrE1DO6-194" value="&lt;b style=&quot;&quot;&gt;&lt;font style=&quot;font-size: 20px;&quot;&gt;Task&lt;/font&gt;&lt;/b&gt;" style="text;html=1;align=center;verticalAlign=middle;whiteSpace=wrap;rounded=0;container=0;fontSize=18;strokeWidth=2;" vertex="1" parent="1">
          <mxGeometry x="1689.2499999999998" y="516.25" width="60" height="30" as="geometry" />
        </mxCell>
        <mxCell id="k1-iHyB-ivSmNIrE1DO6-195" style="edgeStyle=orthogonalEdgeStyle;rounded=0;orthogonalLoop=1;jettySize=auto;html=1;exitX=1;exitY=0.5;exitDx=0;exitDy=0;fontSize=18;strokeWidth=2;" edge="1" parent="1" source="k1-iHyB-ivSmNIrE1DO6-196">
          <mxGeometry relative="1" as="geometry">
            <mxPoint x="1858.37" y="591" as="targetPoint" />
            <mxPoint x="1838.3699999999994" y="591.060606060606" as="sourcePoint" />
          </mxGeometry>
        </mxCell>
        <mxCell id="k1-iHyB-ivSmNIrE1DO6-196" value="&lt;div style=&quot;font-size: 18px;&quot;&gt;Task&lt;/div&gt;&lt;div style=&quot;font-size: 18px;&quot;&gt;Storage&lt;/div&gt;" style="rounded=1;whiteSpace=wrap;html=1;container=0;fontSize=18;strokeWidth=2;" vertex="1" parent="1">
          <mxGeometry x="1758.37" y="568.25" width="67.12" height="45.5" as="geometry" />
        </mxCell>
        <mxCell id="k1-iHyB-ivSmNIrE1DO6-197" value="" style="endArrow=classic;html=1;rounded=0;entryX=0.5;entryY=0;entryDx=0;entryDy=0;fontSize=18;exitX=0.292;exitY=0.273;exitDx=0;exitDy=0;exitPerimeter=0;strokeWidth=2;" edge="1" parent="1" target="k1-iHyB-ivSmNIrE1DO6-193" source="k1-iHyB-ivSmNIrE1DO6-191">
          <mxGeometry width="50" height="50" relative="1" as="geometry">
            <mxPoint x="1659.2499999999998" y="543.75" as="sourcePoint" />
            <mxPoint x="1659.2499999999998" y="558.25" as="targetPoint" />
          </mxGeometry>
        </mxCell>
        <mxCell id="k1-iHyB-ivSmNIrE1DO6-198" value="" style="endArrow=classic;html=1;rounded=0;entryX=0.5;entryY=0;entryDx=0;entryDy=0;exitX=0.45;exitY=0.25;exitDx=0;exitDy=0;exitPerimeter=0;fontSize=18;strokeWidth=2;" edge="1" parent="1" target="k1-iHyB-ivSmNIrE1DO6-81">
          <mxGeometry width="50" height="50" relative="1" as="geometry">
            <mxPoint x="1050.8800000000003" y="507.5" as="sourcePoint" />
            <mxPoint x="1020.88" y="417.5" as="targetPoint" />
          </mxGeometry>
        </mxCell>
        <mxCell id="k1-iHyB-ivSmNIrE1DO6-203" value="" style="endArrow=classic;html=1;rounded=0;exitX=1;exitY=0.5;exitDx=0;exitDy=0;fontSize=18;strokeWidth=2;" edge="1" parent="1" source="k1-iHyB-ivSmNIrE1DO6-189">
          <mxGeometry width="50" height="50" relative="1" as="geometry">
            <mxPoint x="1551.75" y="660" as="sourcePoint" />
            <mxPoint x="1591.75" y="591" as="targetPoint" />
          </mxGeometry>
        </mxCell>
        <mxCell id="k1-iHyB-ivSmNIrE1DO6-210" style="edgeStyle=orthogonalEdgeStyle;rounded=0;orthogonalLoop=1;jettySize=auto;html=1;entryX=0.001;entryY=0.182;entryDx=0;entryDy=0;entryPerimeter=0;startArrow=classic;startFill=1;endArrow=none;endFill=0;fontSize=18;strokeWidth=2;" edge="1" parent="1" source="k1-iHyB-ivSmNIrE1DO6-40" target="k1-iHyB-ivSmNIrE1DO6-6">
          <mxGeometry relative="1" as="geometry" />
        </mxCell>
        <mxCell id="k1-iHyB-ivSmNIrE1DO6-211" style="edgeStyle=orthogonalEdgeStyle;rounded=0;orthogonalLoop=1;jettySize=auto;html=1;entryX=0.004;entryY=0.511;entryDx=0;entryDy=0;entryPerimeter=0;fontSize=18;strokeWidth=2;" edge="1" parent="1" source="k1-iHyB-ivSmNIrE1DO6-98" target="k1-iHyB-ivSmNIrE1DO6-2">
          <mxGeometry relative="1" as="geometry" />
        </mxCell>
        <mxCell id="k1-iHyB-ivSmNIrE1DO6-212" style="edgeStyle=orthogonalEdgeStyle;rounded=0;orthogonalLoop=1;jettySize=auto;html=1;fontSize=18;strokeWidth=2;" edge="1" parent="1" source="k1-iHyB-ivSmNIrE1DO6-48">
          <mxGeometry relative="1" as="geometry">
            <mxPoint x="1540" y="419" as="targetPoint" />
          </mxGeometry>
        </mxCell>
        <mxCell id="k1-iHyB-ivSmNIrE1DO6-213" value="&lt;span style=&quot;color: rgb(27, 27, 27); font-family: &amp;quot;Open Sans&amp;quot;, -apple-system, BlinkMacSystemFont, &amp;quot;Segoe UI&amp;quot;, &amp;quot;Helvetica Neue&amp;quot;, Arial, sans-serif, &amp;quot;Apple Color Emoji&amp;quot;, &amp;quot;Segoe UI Emoji&amp;quot;, &amp;quot;Segoe UI Symbol&amp;quot;; font-size: 24px; font-weight: 700; letter-spacing: -0.054px; text-align: left; background-color: rgb(255, 255, 255);&quot;&gt;Memory&lt;/span&gt;" style="text;html=1;align=center;verticalAlign=middle;whiteSpace=wrap;rounded=0;strokeWidth=2;" vertex="1" parent="1">
          <mxGeometry x="1193.5" y="-138.60000000000002" width="150" height="40" as="geometry" />
        </mxCell>
      </root>
    </mxGraphModel>
  </diagram>
</mxfile>
